<svg width="37" height="37" viewBox="0 0 37 37" fill="none" xmlns="http://www.w3.org/2000/svg">
<path d="M30.7716 13.8132C29.7387 12.6724 28.1816 12.0094 26.0233 11.7782V10.6065C26.0233 8.49445 25.1291 6.45945 23.5566 5.04112C21.9687 3.59195 19.9029 2.91362 17.7599 3.11403C14.0753 3.46862 10.9766 7.02987 10.9766 10.884V11.7782C8.81827 12.0094 7.26118 12.6724 6.22827 13.8132C4.73285 15.4782 4.7791 17.6982 4.94868 19.2399L6.02785 27.8269C6.3516 30.8332 7.56952 33.9165 14.1987 33.9165H22.8012C29.4303 33.9165 30.6483 30.8332 30.972 27.8424L32.0512 19.2245C32.2208 17.6982 32.2516 15.4782 30.7716 13.8132ZM17.9758 5.25695C19.5174 5.1182 20.982 5.59612 22.1229 6.62903C23.2483 7.64653 23.8803 9.0957 23.8803 10.6065V11.6857H13.1195V10.884C13.1195 8.13987 15.3858 5.50362 17.9758 5.25695ZM12.9808 20.2728H12.9654C12.1174 20.2728 11.4237 19.579 11.4237 18.7311C11.4237 17.8832 12.1174 17.1895 12.9654 17.1895C13.8287 17.1895 14.5224 17.8832 14.5224 18.7311C14.5224 19.579 13.8287 20.2728 12.9808 20.2728ZM23.7724 20.2728H23.757C22.9091 20.2728 22.2153 19.579 22.2153 18.7311C22.2153 17.8832 22.9091 17.1895 23.757 17.1895C24.6203 17.1895 25.3141 17.8832 25.3141 18.7311C25.3141 19.579 24.6203 20.2728 23.7724 20.2728Z" fill="#112B3C"/>
</svg>
