<svg width="34" height="34" viewBox="0 0 34 34" fill="none" xmlns="http://www.w3.org/2000/svg">
<path d="M22.9358 2.83331H11.0641C5.90742 2.83331 2.83325 5.90748 2.83325 11.0641V22.9216C2.83325 28.0925 5.90742 31.1666 11.0641 31.1666H22.9216C28.0783 31.1666 31.1524 28.0925 31.1524 22.9358V11.0641C31.1666 5.90748 28.0924 2.83331 22.9358 2.83331ZM12.9058 23.9416C12.9058 24.3383 12.5941 24.65 12.1974 24.65H8.24492C7.84825 24.65 7.53659 24.3383 7.53659 23.9416V17.3966C7.53659 16.5041 8.25909 15.7816 9.15159 15.7816H12.1974C12.5941 15.7816 12.9058 16.0933 12.9058 16.49V23.9416ZM19.6774 23.9416C19.6774 24.3383 19.3658 24.65 18.9691 24.65H15.0166C14.6199 24.65 14.3083 24.3383 14.3083 23.9416V10.965C14.3083 10.0725 15.0308 9.34998 15.9233 9.34998H18.0766C18.9691 9.34998 19.6916 10.0725 19.6916 10.965V23.9416H19.6774ZM26.4633 23.9416C26.4633 24.3383 26.1516 24.65 25.7549 24.65H21.8024C21.4058 24.65 21.0941 24.3383 21.0941 23.9416V18.9125C21.0941 18.5158 21.4058 18.2041 21.8024 18.2041H24.8483C25.7408 18.2041 26.4633 18.9266 26.4633 19.8191V23.9416Z" fill="#353535"/>
</svg>
