<svg width="28" height="28" viewBox="0 0 28 28" fill="none" xmlns="http://www.w3.org/2000/svg">
<path d="M18.8883 2.33334H9.11158C4.86492 2.33334 2.33325 4.86501 2.33325 9.11168V18.8767C2.33325 23.135 4.86492 25.6667 9.11158 25.6667H18.8766C23.1233 25.6667 25.6549 23.135 25.6549 18.8883V9.11168C25.6666 4.86501 23.1349 2.33334 18.8883 2.33334ZM12.7749 20.4283C12.4366 20.7667 11.7949 21.0933 11.3283 21.1633L8.45825 21.5717C8.35325 21.5833 8.24825 21.595 8.14325 21.595C7.66492 21.595 7.22159 21.4317 6.90659 21.1167C6.52159 20.7317 6.35825 20.1717 6.45159 19.5533L6.85992 16.6833C6.92992 16.205 7.24492 15.575 7.59492 15.2367L12.7983 10.0333C12.8916 10.2783 12.9849 10.5233 13.1133 10.8033C13.2299 11.0483 13.3583 11.305 13.4983 11.5383C13.6149 11.7367 13.7433 11.9233 13.8483 12.0633C13.9766 12.2617 14.1283 12.4483 14.2216 12.5533C14.2799 12.635 14.3266 12.6933 14.3499 12.7167C14.6416 13.0667 14.9799 13.3933 15.2716 13.6383C15.3533 13.72 15.3999 13.7667 15.4233 13.7783C15.5983 13.9183 15.7733 14.0583 15.9249 14.1633C16.1116 14.3033 16.2983 14.4317 16.4966 14.5367C16.7299 14.6767 16.9866 14.805 17.2433 14.9333C17.5116 15.05 17.7566 15.155 18.0016 15.2367L12.7749 20.4283ZM20.2649 12.9383L19.1916 14.0233C19.1216 14.0933 19.0283 14.1283 18.9349 14.1283C18.8999 14.1283 18.8533 14.1283 18.8299 14.1167C16.4616 13.44 14.5716 11.55 13.8949 9.18168C13.8599 9.05334 13.8949 8.91334 13.9883 8.83168L15.0733 7.74668C16.8466 5.97334 18.5383 6.00834 20.2766 7.74668C21.1633 8.63334 21.5949 9.48501 21.5949 10.3717C21.5833 11.2117 21.1516 12.0517 20.2649 12.9383Z" fill="#646464"/>
</svg>
