<svg width="34" height="34" viewBox="0 0 34 34" fill="none" xmlns="http://www.w3.org/2000/svg">
<path d="M23.8 2.83333H20.1167C15.5833 2.83333 12.75 5.66666 12.75 10.2V15.9375H21.6042C22.185 15.9375 22.6667 16.4192 22.6667 17C22.6667 17.5808 22.185 18.0625 21.6042 18.0625H12.75V23.8C12.75 28.3333 15.5833 31.1667 20.1167 31.1667H23.7858C28.3192 31.1667 31.1525 28.3333 31.1525 23.8V10.2C31.1667 5.66666 28.3333 2.83333 23.8 2.83333Z" fill="#646464"/>
<path d="M6.46004 15.9375L9.39254 13.005C9.60504 12.7925 9.70421 12.5233 9.70421 12.2542C9.70421 11.985 9.60504 11.7017 9.39254 11.5033C8.98171 11.0925 8.30171 11.0925 7.89087 11.5033L3.14504 16.2492C2.73421 16.66 2.73421 17.34 3.14504 17.7508L7.89087 22.4967C8.30171 22.9075 8.98171 22.9075 9.39254 22.4967C9.80337 22.0858 9.80337 21.4058 9.39254 20.995L6.46004 18.0625H12.75V15.9375H6.46004Z" fill="#646464"/>
</svg>
