<svg width="34" height="34" viewBox="0 0 34 34" fill="none" xmlns="http://www.w3.org/2000/svg">
<path d="M25.4999 4.25H8.49992C5.36909 4.25 2.83325 6.77167 2.83325 9.87417V24.1258C2.83325 27.2283 5.36909 29.75 8.49992 29.75H25.4999C28.6308 29.75 31.1666 27.2283 31.1666 24.1258V9.87417C31.1666 6.77167 28.6308 4.25 25.4999 4.25ZM12.0416 10.1575C13.8408 10.1575 15.3141 11.6308 15.3141 13.43C15.3141 15.2292 13.8408 16.7025 12.0416 16.7025C10.2424 16.7025 8.76909 15.2292 8.76909 13.43C8.76909 11.6308 10.2424 10.1575 12.0416 10.1575ZM17.5241 23.6017C17.3966 23.7433 17.1983 23.8283 16.9999 23.8283H7.08325C6.88492 23.8283 6.68659 23.7433 6.55909 23.6017C6.43159 23.46 6.36075 23.2617 6.37492 23.0633C6.61575 20.6833 8.51409 18.7992 10.8941 18.5725C11.6449 18.5017 12.4241 18.5017 13.1749 18.5725C15.5549 18.7992 17.4674 20.6833 17.6941 23.0633C17.7224 23.2617 17.6516 23.46 17.5241 23.6017ZM26.9166 23.7292H24.0833C23.5024 23.7292 23.0208 23.2475 23.0208 22.6667C23.0208 22.0858 23.5024 21.6042 24.0833 21.6042H26.9166C27.4974 21.6042 27.9791 22.0858 27.9791 22.6667C27.9791 23.2475 27.4974 23.7292 26.9166 23.7292ZM26.9166 18.0625H21.2499C20.6691 18.0625 20.1874 17.5808 20.1874 17C20.1874 16.4192 20.6691 15.9375 21.2499 15.9375H26.9166C27.4974 15.9375 27.9791 16.4192 27.9791 17C27.9791 17.5808 27.4974 18.0625 26.9166 18.0625ZM26.9166 12.3958H19.8333C19.2524 12.3958 18.7708 11.9142 18.7708 11.3333C18.7708 10.7525 19.2524 10.2708 19.8333 10.2708H26.9166C27.4974 10.2708 27.9791 10.7525 27.9791 11.3333C27.9791 11.9142 27.4974 12.3958 26.9166 12.3958Z" fill="#646464"/>
</svg>
