<svg width="37" height="37" viewBox="0 0 37 37" fill="none" xmlns="http://www.w3.org/2000/svg">
<path d="M29.415 24.2348C28.5054 18.7927 23.2792 14.3682 17.76 14.3682C11.7629 14.3682 6.49044 19.2244 5.98169 25.2061C5.78127 27.5186 6.52127 29.7077 8.04752 31.3573C9.55835 33.0069 11.6859 33.9165 13.9984 33.9165H21.2134C23.8188 33.9165 26.1004 32.899 27.6575 31.0644C29.2146 29.2298 29.8313 26.794 29.415 24.2348Z" fill="#646464"/>
<path d="M15.8484 12.1177C18.3431 12.1177 20.3655 10.0953 20.3655 7.60058C20.3655 5.10586 18.3431 3.0835 15.8484 3.0835C13.3537 3.0835 11.3313 5.10586 11.3313 7.60058C11.3313 10.0953 13.3537 12.1177 15.8484 12.1177Z" fill="#646464"/>
<path d="M26.1159 13.9213C28.1934 13.9213 29.8776 12.2371 29.8776 10.1596C29.8776 8.0821 28.1934 6.39795 26.1159 6.39795C24.0384 6.39795 22.3542 8.0821 22.3542 10.1596C22.3542 12.2371 24.0384 13.9213 26.1159 13.9213Z" fill="#646464"/>
<path d="M31.6813 19.9339C33.3416 19.9339 34.6875 18.5879 34.6875 16.9276C34.6875 15.2673 33.3416 13.9214 31.6813 13.9214C30.021 13.9214 28.675 15.2673 28.675 16.9276C28.675 18.5879 30.021 19.9339 31.6813 19.9339Z" fill="#646464"/>
<path d="M6.07417 16.9276C8.15168 16.9276 9.83583 15.2435 9.83583 13.166C9.83583 11.0885 8.15168 9.4043 6.07417 9.4043C3.99666 9.4043 2.3125 11.0885 2.3125 13.166C2.3125 15.2435 3.99666 16.9276 6.07417 16.9276Z" fill="#646464"/>
</svg>
