<svg width="34" height="34" viewBox="0 0 34 34" fill="none" xmlns="http://www.w3.org/2000/svg">
<path d="M26.8318 7.67831L19.5076 3.44248C18.1051 2.63498 15.9093 2.63498 14.5068 3.44248L7.11178 7.70664C4.17928 9.68998 4.00928 9.98748 4.00928 13.1466V20.8391C4.00928 23.9983 4.17928 24.31 7.16844 26.3216L14.4926 30.5575C15.2009 30.9683 16.1076 31.1666 17.0001 31.1666C17.8926 31.1666 18.7993 30.9683 19.4934 30.5575L26.8884 26.2933C29.8209 24.31 29.9909 24.0125 29.9909 20.8533V13.1466C29.9909 9.98748 29.8209 9.68998 26.8318 7.67831ZM17.0001 21.6041C14.4643 21.6041 12.3959 19.5358 12.3959 17C12.3959 14.4641 14.4643 12.3958 17.0001 12.3958C19.5359 12.3958 21.6043 14.4641 21.6043 17C21.6043 19.5358 19.5359 21.6041 17.0001 21.6041Z" fill="#646464"/>
</svg>
