<svg width="34" height="34" viewBox="0 0 34 34" fill="none" xmlns="http://www.w3.org/2000/svg">
<path d="M11.0641 2.83337C8.95325 2.83337 7.19659 3.34337 5.85075 4.32087C5.25575 4.73171 4.73159 5.25587 4.32075 5.85087C3.34325 7.19671 2.83325 8.95337 2.83325 11.0642V22.9359C2.83325 28.0925 5.90742 31.1667 11.0641 31.1667H21.6466V2.83337H11.0641ZM17.1699 17.7509L13.5433 21.3775C13.3308 21.59 13.0616 21.6892 12.7924 21.6892C12.5233 21.6892 12.2541 21.59 12.0416 21.3775C11.6308 20.9667 11.6308 20.2867 12.0416 19.8759L14.9033 17L12.0416 14.1242C11.6166 13.7134 11.6166 13.0334 12.0416 12.6225C12.4666 12.2117 13.1324 12.2117 13.5433 12.6225L17.1699 16.2492C17.5808 16.66 17.5808 17.34 17.1699 17.7509Z" fill="#646464"/>
<path d="M23.7717 2.87585V31.1384C25.5142 31.025 26.9876 30.5292 28.1492 29.6792C28.7442 29.2684 29.2684 28.7442 29.6792 28.1492C30.6567 26.8034 31.1667 25.0467 31.1667 22.9359V11.0642C31.1667 6.19085 28.4184 3.17335 23.7717 2.87585Z" fill="#646464"/>
</svg>
