<svg width="28" height="28" viewBox="0 0 28 28" fill="none" xmlns="http://www.w3.org/2000/svg">
<path d="M24.5817 6.10168C22.7034 5.91501 20.825 5.77501 18.935 5.67001V5.65834L18.6784 4.14168C18.5034 3.06834 18.2467 1.45834 15.5167 1.45834H12.46C9.74169 1.45834 9.48502 2.99834 9.29835 4.13001L9.05335 5.62334C7.96835 5.69334 6.88335 5.76334 5.79835 5.86834L3.41835 6.10168C2.92835 6.14834 2.57835 6.58001 2.62502 7.05834C2.67169 7.53668 3.09169 7.88668 3.58169 7.84001L5.96169 7.60668C12.075 7.00001 18.235 7.23334 24.4184 7.85168C24.4534 7.85168 24.4767 7.85168 24.5117 7.85168C24.955 7.85168 25.34 7.51334 25.3867 7.05834C25.4217 6.58001 25.0717 6.14834 24.5817 6.10168Z" fill="#646464"/>
<path d="M22.435 9.49666C22.155 9.20499 21.77 9.04166 21.3734 9.04166H6.6267C6.23003 9.04166 5.83337 9.20499 5.56503 9.49666C5.2967 9.78832 5.14503 10.185 5.16837 10.5933L5.8917 22.5633C6.02003 24.3367 6.18337 26.5533 10.255 26.5533H17.745C21.8167 26.5533 21.98 24.3483 22.1084 22.5633L22.8317 10.605C22.855 10.185 22.7034 9.78832 22.435 9.49666ZM15.9367 20.7083H12.0517C11.5734 20.7083 11.1767 20.3117 11.1767 19.8333C11.1767 19.355 11.5734 18.9583 12.0517 18.9583H15.9367C16.415 18.9583 16.8117 19.355 16.8117 19.8333C16.8117 20.3117 16.415 20.7083 15.9367 20.7083ZM16.9167 16.0417H11.0834C10.605 16.0417 10.2084 15.645 10.2084 15.1667C10.2084 14.6883 10.605 14.2917 11.0834 14.2917H16.9167C17.395 14.2917 17.7917 14.6883 17.7917 15.1667C17.7917 15.645 17.395 16.0417 16.9167 16.0417Z" fill="#646464"/>
</svg>
