<svg width="34" height="34" viewBox="0 0 34 34" fill="none" xmlns="http://www.w3.org/2000/svg">
<path d="M17.0001 2.83331C13.0901 2.83331 9.91675 6.00665 9.91675 9.91665C9.91675 13.8266 13.0901 17 17.0001 17C20.9101 17 24.0834 13.8266 24.0834 9.91665C24.0834 6.00665 20.9101 2.83331 17.0001 2.83331ZM20.0742 9.22248L16.2492 13.0475C16.1076 13.1891 15.8101 13.3308 15.6117 13.3733L14.1526 13.5716C13.6142 13.6425 13.2459 13.2741 13.3309 12.75L13.5434 11.2908C13.5717 11.0925 13.7134 10.795 13.8692 10.6533L17.6942 6.82831C18.3459 6.17665 19.1251 5.86498 20.0884 6.82831C21.0376 7.80581 20.7259 8.57081 20.0742 9.22248Z" fill="#646464"/>
<path d="M17.0001 19.8333C9.90256 19.8333 4.12256 24.5933 4.12256 30.4583C4.12256 30.855 4.43423 31.1666 4.83089 31.1666H29.1692C29.5659 31.1666 29.8776 30.855 29.8776 30.4583C29.8776 24.5933 24.0976 19.8333 17.0001 19.8333Z" fill="#646464"/>
</svg>
