<svg width="34" height="34" viewBox="0 0 34 34" fill="none" xmlns="http://www.w3.org/2000/svg">
<path d="M30.5432 15.215L28.6166 12.9766C28.2483 12.5516 27.9507 11.7583 27.9507 11.1916V8.78331C27.9507 7.28165 26.7182 6.04915 25.2166 6.04915H22.8082C22.2557 6.04915 21.4482 5.75165 21.0232 5.38331L18.7849 3.45665C17.8074 2.62081 16.2066 2.62081 15.2149 3.45665L12.9907 5.39748C12.5657 5.75165 11.7582 6.04915 11.2057 6.04915H8.75491C7.25325 6.04915 6.02075 7.28165 6.02075 8.78331V11.2058C6.02075 11.7583 5.72325 12.5516 5.36908 12.9766L3.45658 15.2291C2.63492 16.2066 2.63492 17.7933 3.45658 18.7708L5.36908 21.0233C5.72325 21.4483 6.02075 22.2416 6.02075 22.7941V25.2166C6.02075 26.7183 7.25325 27.9508 8.75491 27.9508H11.2057C11.7582 27.9508 12.5657 28.2483 12.9907 28.6167L15.2291 30.5433C16.2066 31.3792 17.8074 31.3792 18.7991 30.5433L21.0374 28.6167C21.4624 28.2483 22.2557 27.9508 22.8224 27.9508H25.2307C26.7324 27.9508 27.9649 26.7183 27.9649 25.2166V22.8083C27.9649 22.2558 28.2624 21.4483 28.6307 21.0233L30.5574 18.785C31.3791 17.8075 31.3791 16.1925 30.5432 15.215ZM22.8932 14.3225L16.0507 21.165C15.8524 21.3633 15.5832 21.4766 15.2999 21.4766C15.0166 21.4766 14.7474 21.3633 14.5491 21.165L11.1207 17.7366C10.7099 17.3258 10.7099 16.6458 11.1207 16.235C11.5316 15.8241 12.2116 15.8241 12.6224 16.235L15.2999 18.9125L21.3916 12.8208C21.8024 12.41 22.4824 12.41 22.8932 12.8208C23.3041 13.2316 23.3041 13.9116 22.8932 14.3225Z" fill="#646464"/>
</svg>
