<svg width="37" height="37" viewBox="0 0 37 37" fill="none" xmlns="http://www.w3.org/2000/svg">
<path d="M28.5208 35.0729C24.9133 35.0729 21.9687 32.1283 21.9687 28.5208V27.75C21.9687 27.1179 22.4928 26.5938 23.1249 26.5938C23.757 26.5938 24.2812 27.1179 24.2812 27.75V28.5208C24.2812 30.8642 26.1774 32.7604 28.5208 32.7604C30.8641 32.7604 32.7603 30.8642 32.7603 28.5208C32.7603 26.1775 30.8641 24.2812 28.5208 24.2812H3.08325C2.45117 24.2812 1.927 23.7571 1.927 23.125C1.927 22.4929 2.45117 21.9688 3.08325 21.9688H28.5208C32.1283 21.9688 35.0728 24.9133 35.0728 28.5208C35.0728 32.1283 32.1283 35.0729 28.5208 35.0729Z" fill="#112B3C"/>
<path d="M28.5208 19.6564H3.08325C2.45117 19.6564 1.927 19.1322 1.927 18.5002C1.927 17.8681 2.45117 17.3439 3.08325 17.3439H28.5208C30.8641 17.3439 32.7603 15.4477 32.7603 13.1043C32.7603 10.761 30.8641 8.86475 28.5208 8.86475C26.1774 8.86475 24.2812 10.761 24.2812 13.1043V13.8752C24.2812 14.5072 23.757 15.0314 23.1249 15.0314C22.4928 15.0314 21.9687 14.5072 21.9687 13.8752V13.1043C21.9687 9.49683 24.9133 6.55225 28.5208 6.55225C32.1283 6.55225 35.0728 9.49683 35.0728 13.1043C35.0728 16.7118 32.1283 19.6564 28.5208 19.6564Z" fill="#112B3C"/>
<path d="M14.3528 15.0315H3.08325C2.45117 15.0315 1.927 14.5073 1.927 13.8752C1.927 13.2431 2.45117 12.719 3.08325 12.719H14.3528C16.0024 12.719 17.3437 11.3777 17.3437 9.72814C17.3437 8.07855 16.0024 6.7373 14.3528 6.7373C12.7033 6.7373 11.362 8.07855 11.362 9.72814V10.314C11.362 10.9461 10.8378 11.4702 10.2058 11.4702C9.57367 11.4702 9.0495 10.9615 9.0495 10.314V9.72814C9.0495 6.79897 11.4237 4.4248 14.3528 4.4248C17.282 4.4248 19.6562 6.79897 19.6562 9.72814C19.6562 12.6573 17.282 15.0315 14.3528 15.0315Z" fill="#112B3C"/>
</svg>
